<?xml version="1.0" encoding="UTF-8"?>
<svg width="300" height="300" version="1.1" viewBox="0 79.375 79.375" xmlns="http://www.w3.org/2000/svg">
 <g stroke="#000" stroke-linejoin="round" stroke-opacity=".84739">
  <path d="m68.094 15.143c-1.8918 0.01737-4.5136 0.43847-8.1535 1.3839-25.884 6.723 6.9919 11.314-14.166 26.774-21.158 15.459-18.029-15.439-31.24 6.4032-13.211 21.842 13.513 3.3844 10.26 28.284-3.2527 24.9-24.442 0.98603-17.241 25.152 7.2008 24.166 12.118-6.528 28.676 13.226 16.558 19.754-16.536 16.833 6.8585 29.167 23.394 12.334 3.6246-12.616 30.294-9.5793 26.669 3.0369 1.0561 22.82 26.94 16.097 25.884-6.723-6.9919-11.314 14.166-26.774 21.158-15.459 18.03 15.439 31.24-6.4032 13.211-21.842-13.513-3.3844-10.26-28.284 3.2527-24.9 24.442-0.98551 17.241-25.152-7.2008-24.166-12.118 6.528-28.676-13.226-16.558-19.754 16.536-16.833-6.8585-29.168-23.394-12.334-3.6246 12.616-30.294 9.5793-22.919-2.6098-7.2256-17.587-18.786-17.481zm10.148 53.649a17.009 16.631 0 0 1 17.009 16.631 17.009 16.631 0 0 1-17.009 16.631 17.009 16.631 0 0 1-17.009-16.631 17.009 16.631 0 0 1 17.009-16.631z" fill="#ff0" stroke-width=".2614">
  <animateTransform
     id="eng1"
     attributeName="transform"
     type="rotate"
     from="0, 77.816, 84.244"
     to=" 90, 77.816, 84.244"
     begin="0s; eng2.end"
     dur="0.5"
   />
  </path>
  <path d="m174.58 105.82c-29.255-0.10782 3.7393 14.428-23.334 25.266-27.073 10.838-13.998-22.141-34.767-2.0066-20.769 20.134 13.087 7.6163 1.7834 33.981-11.304 26.365-25.925-5.9818-26.042 22.6-0.11703 28.581 14.769-3.6568 25.856 22.79 11.087 26.447-22.666 13.68-2.0619 33.966 20.604 20.286 7.7987-12.787 34.782-1.7498 26.984 11.037-6.1287 25.329 23.127 25.437 29.255 0.10782-3.7398-14.428 23.333-25.266 27.073-10.838 13.998 22.141 34.767 2.0066 20.769-20.134-13.087-7.6163-1.7834-33.981 11.304-26.365 25.925 5.9824 26.042-22.599 0.11703-28.581-14.769 3.6563-25.856-22.791-11.087-26.447 22.666-13.68 2.0619-33.966-20.604-20.286-7.7987 12.787-34.782 1.7498-26.984-11.037 6.1292-25.329-23.126-25.437zm-2.2185 61.243a21.167 18.899 0 0 1 21.167 18.899 21.167 18.899 0 0 1-21.167 18.899 21.167 18.899 0 0 1-21.167-18.899 21.167 18.899 0 0 1 21.167-18.899z" fill="#00ca00" stroke-width=".24932">
  	<animateTransform 
     id="eng2"
     attributeName="transform" 
     type="rotate"
     from="0, 174.0, 188.5"
     to="-90, 174.0, 188.5"
     begin="0s; eng1.begin"
     dur="0.5"
     />
  </path>
 </g>
</svg>
